 <svg  version="1.0" xmlns="http://www.w3.org/2000/svg"  width="900.000000pt" height="741.000000pt" viewBox="0 0 900.000000 741.000000"  preserveAspectRatio="xMidYMid meet">  <g transform="translate(0.000000,741.000000) scale(0.100000,-0.100000)" fill="#dd870e" stroke="none"> <path d="M4628 6868 c9 -9 15 -9 24 0 9 9 7 12 -12 12 -19 0 -21 -3 -12 -12z"/> <path d="M5570 6720 c0 -5 9 -14 20 -20 19 -10 20 -10 8 9 -13 22 -28 28 -28 11z"/> <path d="M4355 6689 c-10 -15 3 -25 16 -12 7 7 7 13 1 17 -6 3 -14 1 -17 -5z"/> <path d="M3655 6450 c-4 -6 5 -10 19 -10 14 0 26 5 26 10 0 6 -9 10 -19 10 -11 0 -23 -4 -26 -10z"/> <path d="M4260 5769 c-25 -5 -70 -13 -100 -18 -73 -11 -183 -41 -195 -52 -5 -5 -15 -9 -23 -9 -32 0 -242 -105 -305 -153 -19 -15 -40 -27 -44 -27 -5 0 -38 -26 -75 -57 -36 -32 -78 -69 -94 -83 -69 -58 -284 -326 -284 -352 0 -4 -20 -41 -45 -81 -25 -41 -45 -79 -45 -84 0 -5 -13 -36 -28 -69 -16 -32 -36 -86 -46 -119 -10 -33 -25 -75 -32 -93 -8 -18 -14 -43 -14 -56 0 -13 -7 -43 -15 -66 -8 -23 -15 -61 -15 -84 -1 -22 -7 -68 -15 -101 -20 -83 -20 -343 1 -466 13 -81 19 -98 45 -122 27 -25 35 -27 78 -21 l48 6 13 -103 c6 -57 18 -125 26 -151 8 -26 14 -52 14 -58 0 -18 40 -101 75 -156 25 -39 44 -55 84 -73 31 -13 51 -28 51 -37 0 -31 44 -93 76 -109 23 -11 64 -15 144 -15 129 0 171 16 208 81 22 38 22 38 21 691 0 359 -3 660 -7 669 -4 8 -22 33 -40 55 l-32 39 -143 0 c-126 0 -145 -2 -169 -20 -32 -24 -58 -66 -58 -93 0 -14 -12 -25 -38 -35 -71 -28 -132 -118 -132 -193 0 -40 12 -44 28 -10 5 12 54 63 109 113 54 49 112 103 130 120 36 33 92 47 151 38 58 -10 81 -25 103 -69 19 -40 20 -57 17 -626 l-3 -585 -24 -38 c-28 -45 -47 -51 -159 -48 -51 1 -56 4 -110 59 -32 31 -71 68 -88 82 -66 55 -133 202 -149 325 -15 116 -38 157 -123 217 -24 17 -50 45 -57 62 -19 45 -27 252 -14 376 5 58 12 128 14 155 2 28 11 71 20 95 9 25 21 63 25 85 14 64 39 146 48 159 5 6 15 33 22 59 7 27 23 63 35 81 12 18 25 44 28 58 4 14 22 48 40 75 18 27 39 63 46 81 7 17 20 37 28 43 8 7 30 36 49 64 79 120 310 323 437 385 23 12 53 27 67 35 100 56 306 127 380 131 19 1 76 7 125 14 92 12 123 11 305 -14 139 -19 177 -28 228 -55 23 -12 47 -19 51 -16 5 2 14 -2 21 -10 7 -8 18 -15 25 -15 32 0 287 -159 363 -227 52 -45 104 -99 115 -119 4 -8 15 -14 23 -14 8 0 20 -12 26 -27 7 -16 22 -38 33 -50 39 -42 105 -134 105 -148 0 -2 18 -33 40 -67 22 -35 40 -72 40 -84 0 -11 9 -29 20 -39 11 -10 20 -25 20 -33 0 -7 6 -26 14 -40 34 -64 59 -140 61 -184 1 -26 7 -54 14 -62 7 -8 16 -41 21 -73 10 -61 23 -117 35 -144 3 -10 2 -20 -4 -24 -8 -4 -8 -12 -1 -25 5 -10 10 -82 11 -161 2 -129 0 -167 -17 -246 -2 -12 -26 -39 -52 -58 -72 -56 -103 -98 -112 -158 -18 -112 -50 -226 -79 -282 -35 -70 -206 -251 -242 -259 -13 -3 -49 -7 -79 -9 -69 -6 -121 24 -139 81 -9 27 -11 191 -9 629 l3 592 28 29 c34 36 87 46 166 33 49 -8 61 -15 125 -78 39 -39 99 -98 134 -131 34 -33 62 -68 62 -76 0 -9 7 -16 15 -16 19 0 19 27 0 76 -35 88 -84 154 -115 154 -21 0 -50 31 -50 52 0 8 -17 35 -38 59 l-39 43 -96 4 c-53 2 -121 1 -151 -2 -49 -7 -59 -12 -86 -46 l-31 -39 0 -676 c0 -666 0 -676 21 -709 33 -54 71 -66 205 -66 110 0 118 1 150 26 34 26 65 74 65 101 0 7 20 22 44 32 77 34 147 147 177 286 4 22 12 60 18 85 6 25 10 78 11 118 0 68 1 72 23 72 12 0 28 -4 36 -9 25 -16 82 12 102 50 32 60 44 291 26 494 -9 94 -20 183 -26 198 -6 16 -11 42 -11 59 0 16 -6 44 -13 61 -21 48 -47 133 -47 149 0 9 -13 42 -30 74 -16 32 -30 67 -30 76 0 9 -4 19 -9 23 -6 3 -21 29 -36 58 -41 82 -71 134 -102 175 -16 20 -42 57 -58 82 -47 71 -262 281 -350 339 -43 29 -108 69 -145 89 -36 19 -72 39 -80 43 -31 17 -107 47 -160 64 -30 10 -72 24 -93 32 -20 7 -52 13 -70 13 -17 1 -57 7 -87 14 -63 15 -294 18 -360 5z"/> <path d="M1727 5718 c-10 -11 -16 -22 -13 -25 7 -7 46 26 46 39 0 13 -14 8 -33 -14z"/> <path d="M1667 5642 c-18 -19 -23 -42 -9 -42 8 0 34 51 29 57 -2 2 -11 -5 -20 -15z"/> <path d="M4240 5600 c-14 -4 -59 -15 -100 -24 -96 -22 -183 -51 -241 -82 -26 -13 -53 -24 -61 -24 -8 0 -23 -9 -33 -20 -10 -11 -24 -20 -31 -20 -14 0 -47 -22 -173 -117 -56 -42 -88 -72 -196 -183 -14 -14 -25 -30 -25 -35 0 -6 -15 -26 -33 -45 -37 -41 -80 -103 -98 -142 -7 -16 -16 -28 -20 -28 -4 0 -17 -20 -27 -44 -11 -24 -25 -47 -31 -50 -6 -4 -11 -15 -11 -24 0 -10 -9 -35 -20 -57 -11 -22 -20 -51 -20 -66 0 -15 -7 -29 -15 -33 -8 -3 -15 -16 -15 -30 0 -14 -5 -28 -10 -31 -6 -4 -8 -15 -5 -25 3 -11 -1 -33 -10 -49 -25 -50 -31 -311 -6 -311 12 0 33 55 47 120 36 174 78 317 112 377 7 12 12 28 12 36 0 13 66 139 108 206 30 48 135 186 176 230 87 93 236 203 363 265 155 77 262 109 423 127 121 13 107 13 185 5 33 -3 89 -8 125 -12 36 -3 83 -11 105 -19 22 -7 65 -20 95 -30 53 -17 240 -104 250 -116 3 -3 28 -19 55 -35 28 -16 104 -83 171 -149 119 -118 138 -140 208 -240 45 -65 166 -310 166 -336 0 -6 6 -25 14 -42 16 -36 31 -92 51 -187 7 -36 18 -78 24 -93 6 -16 11 -42 11 -58 0 -17 5 -40 12 -52 10 -20 13 -13 30 63 14 64 16 95 9 125 -5 22 -15 67 -21 100 -16 76 -40 156 -53 173 -5 7 -14 33 -18 59 -5 26 -18 56 -28 67 -10 12 -34 53 -54 91 -51 102 -59 116 -89 156 -16 20 -28 40 -28 45 0 6 -21 30 -46 54 -26 25 -54 57 -63 71 -21 34 -190 189 -206 189 -7 0 -20 9 -30 20 -10 11 -27 22 -38 26 -11 4 -37 18 -57 33 -20 15 -57 35 -81 45 -24 10 -62 27 -85 37 -23 10 -47 19 -53 19 -7 0 -22 6 -34 12 -83 47 -487 86 -587 58z"/> <path d="M1590 5525 c0 -8 5 -15 10 -15 6 0 10 7 10 15 0 8 -4 15 -10 15 -5 0 -10 -7 -10 -15z"/> <path d="M6950 5465 c0 -8 5 -15 10 -15 6 0 10 7 10 15 0 8 -4 15 -10 15 -5 0 -10 -7 -10 -15z"/> <path d="M1500 5345 c0 -8 5 -15 10 -15 6 0 10 7 10 15 0 8 -4 15 -10 15 -5 0 -10 -7 -10 -15z"/> <path d="M4650 5303 c-14 -2 -43 -8 -65 -14 -22 -6 -71 -13 -110 -17 l-70 -7 2 -90 c1 -49 5 -114 8 -142 l7 -53 -54 0 c-55 0 -88 -18 -88 -48 0 -29 40 -52 90 -52 83 0 93 16 87 142 -2 56 -8 113 -12 126 -6 19 -2 24 28 37 46 19 177 39 187 28 5 -4 10 -53 12 -108 l3 -100 -46 -5 c-57 -7 -79 -24 -79 -60 0 -22 6 -30 31 -39 51 -18 85 -13 119 16 32 26 32 28 26 87 -4 34 -13 115 -19 180 -7 66 -16 120 -22 121 -5 1 -21 0 -35 -2z"/> <path d="M7100 5145 c0 -14 5 -25 10 -25 6 0 10 11 10 25 0 14 -4 25 -10 25 -5 0 -10 -11 -10 -25z"/> <path d="M1440 5104 c0 -14 4 -23 10 -19 6 3 10 15 10 26 0 10 -4 19 -10 19 -5 0 -10 -12 -10 -26z"/> <path d="M3885 5055 l-37 -34 3 -148 4 -148 -30 3 c-39 3 -95 -31 -95 -58 0 -24 53 -60 88 -60 33 0 82 28 91 52 4 11 4 46 0 77 -4 31 -10 92 -14 136 l-6 81 37 38 37 38 18 -23 c10 -13 22 -33 25 -44 23 -72 104 -72 104 1 0 12 -6 15 -24 12 -30 -6 -36 -2 -60 42 -45 82 -82 92 -141 35z"/> <path d="M7128 5058 c-6 -18 3 -58 13 -58 12 0 12 57 0 64 -5 4 -11 1 -13 -6z"/> <path d="M5032 4985 c-39 -33 -66 -89 -54 -112 5 -10 12 -66 16 -125 l7 -108 -49 0 c-54 0 -82 -20 -82 -58 0 -27 28 -42 77 -42 54 0 79 9 89 31 5 11 5 81 1 160 l-9 140 27 34 c14 19 32 35 40 35 7 0 27 -23 44 -50 17 -28 38 -53 46 -56 20 -8 61 19 68 45 4 17 1 19 -29 14 -28 -5 -35 -2 -44 18 -46 103 -89 124 -148 74z"/> <path d="M1225 4710 c-3 -5 1 -10 9 -10 8 0 18 5 21 10 3 6 -1 10 -9 10 -8 0 -18 -4 -21 -10z"/> <path d="M4405 4670 c-4 -6 -2 -25 4 -43 5 -17 13 -76 17 -129 l6 -98 -38 0 c-26 0 -49 -8 -66 -23 -38 -30 -29 -60 23 -81 35 -14 43 -14 78 0 22 8 42 21 44 29 3 7 2 82 -3 166 -5 85 -9 162 -10 172 0 19 -44 25 -55 7z"/> <path d="M1057 4564 c-4 -4 -7 -14 -7 -23 0 -11 3 -12 11 -4 6 6 10 16 7 23 -2 6 -7 8 -11 4z"/> <path d="M960 4415 c0 -9 5 -15 11 -13 6 2 11 8 11 13 0 5 -5 11 -11 13 -6 2 -11 -4 -11 -13z"/> <path d="M930 4349 c0 -11 5 -17 10 -14 6 3 10 13 10 21 0 8 -4 14 -10 14 -5 0 -10 -9 -10 -21z"/> <path d="M905 4307 c-4 -10 -5 -21 -1 -24 10 -10 18 4 13 24 -4 17 -4 17 -12 0z"/> <path d="M7910 4296 c0 -8 5 -18 10 -21 6 -3 10 1 10 9 0 8 -4 18 -10 21 -5 3 -10 -1 -10 -9z"/> <path d="M878 4244 c-5 -4 -8 -16 -8 -28 0 -14 3 -17 11 -9 6 6 9 19 7 28 -1 9 -6 13 -10 9z"/> <path d="M3890 4156 c0 -16 12 -31 38 -48 60 -40 96 -83 134 -161 60 -121 70 -161 70 -309 0 -152 -12 -208 -70 -326 -37 -73 -97 -141 -147 -164 -25 -11 -35 -51 -15 -63 9 -6 58 16 88 39 56 43 132 133 160 190 69 139 91 327 56 474 -16 67 -23 85 -64 175 -29 63 -111 151 -174 188 -62 35 -76 36 -76 5z"/> <path d="M4875 4155 c-28 -15 -65 -41 -82 -58 -40 -37 -114 -148 -132 -197 -50 -136 -66 -308 -36 -406 8 -27 15 -57 15 -66 0 -26 58 -146 97 -199 47 -66 171 -158 193 -144 23 14 10 51 -24 69 -78 42 -148 148 -187 284 -25 87 -27 313 -4 369 8 19 15 44 15 54 0 56 108 204 193 264 25 18 27 22 15 38 -13 17 -16 17 -63 -8z"/> <path d="M8000 4056 c0 -14 5 -28 10 -31 6 -3 10 5 10 19 0 14 -4 28 -10 31 -6 3 -10 -5 -10 -19z"/> <path d="M810 4010 c0 -11 5 -20 10 -20 6 0 10 9 10 20 0 11 -4 20 -10 20 -5 0 -10 -9 -10 -20z"/> <path d="M3830 3968 c0 -7 20 -32 45 -56 24 -23 56 -68 72 -100 26 -53 28 -65 28 -177 -1 -148 -16 -193 -92 -276 -53 -57 -62 -86 -21 -73 55 17 126 109 157 202 37 108 23 262 -33 371 -34 64 -156 150 -156 109z"/> <path d="M4938 3955 c-59 -39 -103 -107 -132 -204 -46 -153 13 -357 126 -440 48 -35 56 -37 65 -15 4 11 -8 28 -36 52 -26 22 -55 61 -74 101 -30 62 -32 72 -32 181 0 109 2 118 32 180 17 36 50 83 72 105 64 61 51 87 -21 40z"/> <path d="M8030 3941 c0 -17 5 -31 10 -31 6 0 10 11 10 24 0 14 -4 28 -10 31 -6 4 -10 -7 -10 -24z"/> <path d="M3840 3785 c0 -8 5 -15 10 -15 6 0 10 -5 10 -11 0 -7 7 -17 16 -24 12 -9 16 -31 17 -96 1 -78 -1 -88 -26 -121 -32 -41 -33 -48 -9 -48 48 0 95 150 69 220 -21 57 -45 97 -62 104 -23 9 -25 8 -25 -9z"/> <path d="M4945 3764 c-38 -41 -53 -110 -41 -186 9 -54 42 -108 67 -108 25 0 24 7 -6 46 -22 28 -25 43 -25 109 0 77 15 125 49 151 11 8 11 13 2 18 -7 5 -25 -7 -46 -30z"/> <path d="M788 3774 c-11 -11 -10 -112 1 -119 5 -3 12 3 15 12 7 24 -7 117 -16 107z"/> <path d="M8007 3413 c-11 -10 -8 -53 3 -53 6 0 10 14 10 30 0 31 -2 35 -13 23z"/> <path d="M870 3191 c0 -12 5 -21 10 -21 6 0 10 6 10 14 0 8 -4 18 -10 21 -5 3 -10 -3 -10 -14z"/> <path d="M7910 3159 c0 -11 5 -17 10 -14 6 3 10 13 10 21 0 8 -4 14 -10 14 -5 0 -10 -9 -10 -21z"/> <path d="M1042 2889 c2 -7 10 -15 17 -17 8 -3 12 1 9 9 -2 7 -10 15 -17 17 -8 3 -12 -1 -9 -9z"/> <path d="M7710 2885 c-7 -9 -11 -18 -8 -20 3 -3 11 1 18 10 7 9 11 18 8 20 -3 3 -11 -1 -18 -10z"/> <path d="M7365 2680 c-4 -6 6 -10 24 -10 16 0 33 5 36 10 4 6 -6 10 -24 10 -16 0 -33 -4 -36 -10z"/> <path d="M1345 2650 c3 -5 18 -10 33 -10 21 0 24 2 12 10 -20 13 -53 13 -45 0z"/> <path d="M1425 2620 c3 -5 20 -10 36 -10 18 0 28 4 24 10 -3 6 -20 10 -36 10 -18 0 -28 -4 -24 -10z"/> <path d="M6710 2620 c0 -5 7 -10 15 -10 8 0 15 5 15 10 0 6 -7 10 -15 10 -8 0 -15 -4 -15 -10z"/> <path d="M1165 2275 c-146 -23 -231 -62 -317 -147 -64 -63 -83 -117 -81 -230 2 -119 18 -160 95 -243 80 -87 209 -149 333 -161 86 -8 193 -33 245 -57 25 -12 66 -42 91 -68 36 -37 49 -60 63 -113 18 -64 18 -69 1 -114 -18 -48 -75 -117 -110 -133 -11 -5 -27 -13 -35 -18 -65 -40 -219 -53 -311 -25 -137 41 -179 70 -253 174 -29 41 -36 45 -79 48 -112 7 -130 -84 -37 -192 55 -64 113 -112 160 -132 33 -14 86 -38 104 -46 10 -6 60 -16 110 -24 102 -16 222 -6 331 26 72 22 95 33 162 83 70 51 105 105 138 212 16 51 17 68 7 125 -19 114 -24 135 -37 150 -7 8 -16 25 -19 37 -16 53 -201 183 -260 183 -13 0 -40 7 -59 15 -20 8 -60 15 -89 15 -61 0 -174 25 -233 51 -46 21 -91 60 -119 103 -26 41 -27 151 -2 199 19 34 102 97 129 97 8 0 31 7 50 15 23 9 68 15 119 15 139 0 235 -47 311 -151 58 -80 108 -99 162 -63 21 14 25 24 25 64 0 51 -23 89 -102 168 -51 51 -59 57 -125 93 -92 50 -224 66 -368 44z m476 -891 c5 -15 7 -30 3 -33 -7 -7 -34 28 -34 46 0 23 20 14 31 -13z m-27 -391 c-13 -10 -20 -10 -23 -2 -4 14 19 30 33 22 5 -3 1 -12 -10 -20z"/> <path d="M2114 2262 c-6 -4 -19 -22 -28 -40 -15 -29 -17 -80 -15 -490 1 -343 4 -473 15 -522 17 -83 68 -185 119 -241 46 -50 118 -109 133 -109 5 0 15 -7 22 -15 7 -8 24 -15 39 -15 14 0 35 -7 45 -15 31 -24 236 -21 306 4 78 28 122 51 170 91 48 39 130 142 130 162 0 8 5 19 11 25 6 6 15 29 20 50 4 21 13 58 19 83 14 52 7 188 -11 240 -39 114 -59 148 -124 218 -41 45 -118 102 -136 102 -6 0 -23 6 -37 14 -41 22 -162 37 -203 26 -18 -6 -48 -10 -65 -10 -51 0 -175 -70 -207 -118 -16 -23 -35 -42 -43 -42 -17 0 -18 -12 -2 -28 9 -9 -1 -37 -43 -121 -30 -61 -57 -111 -61 -111 -20 -1 -23 350 -3 357 6 2 21 -18 34 -43 l22 -47 17 29 c14 24 17 69 20 270 l4 241 -27 31 c-22 27 -34 32 -68 32 -23 0 -47 -4 -53 -8z m590 -607 c11 -8 26 -15 34 -15 8 0 29 -13 47 -29 18 -16 37 -30 42 -32 14 -6 61 -81 82 -132 16 -37 21 -70 21 -137 0 -49 -4 -91 -9 -94 -4 -3 -11 -19 -14 -36 -13 -64 -133 -188 -197 -203 -130 -31 -127 -31 -191 -13 -144 40 -237 140 -261 281 -12 72 -12 73 2 153 17 104 84 189 201 251 45 24 214 28 243 6z"/> <path d="M5501 2246 l-23 -25 4 -280 c4 -320 5 -318 -70 -231 -24 28 -50 50 -58 50 -8 0 -14 3 -14 8 0 4 -21 17 -47 28 -62 28 -200 46 -244 34 -19 -6 -44 -10 -56 -10 -40 0 -149 -59 -200 -108 -59 -57 -107 -124 -129 -183 -35 -95 -39 -312 -7 -389 37 -88 47 -107 76 -145 55 -69 99 -104 187 -148 85 -42 85 -42 212 -45 101 -3 134 0 159 12 18 9 39 16 46 16 27 0 129 66 179 115 35 34 80 109 110 181 l29 69 3 513 3 513 -23 25 c-33 34 -105 34 -137 0z m85 -700 c-8 -126 -14 -150 -32 -135 -8 6 -14 16 -14 22 0 11 -31 82 -56 129 -20 38 -17 66 11 92 13 12 34 45 46 72 l22 49 14 -65 c10 -45 13 -95 9 -164z m-287 88 c76 -45 111 -81 140 -142 12 -26 26 -55 32 -64 15 -29 11 -210 -6 -232 -8 -11 -15 -28 -15 -38 0 -21 -1 -23 -57 -87 -50 -58 -97 -86 -177 -108 -64 -17 -69 -17 -139 1 -120 31 -194 94 -247 210 -24 55 -30 182 -11 252 14 53 63 126 115 170 60 53 116 72 218 73 82 1 89 -1 147 -35z"/> <path d="M6887 2251 c-26 -10 -53 -23 -59 -29 -7 -7 -20 -12 -30 -12 -49 0 -178 -182 -178 -252 0 -19 -4 -38 -9 -43 -6 -6 -11 -37 -13 -70 l-3 -60 -61 3 c-57 3 -63 2 -83 -24 -27 -34 -27 -78 0 -105 18 -18 31 -20 82 -17 l62 3 2 -375 c1 -206 2 -383 2 -392 1 -9 13 -30 27 -47 43 -51 120 -38 153 26 14 28 15 648 1 723 -6 29 -8 56 -5 59 3 3 60 4 126 2 114 -2 123 -1 145 20 31 29 31 68 0 104 l-24 28 -121 -6 c-70 -3 -123 -2 -126 3 -11 19 25 170 50 210 36 56 97 93 165 97 30 3 65 9 78 16 20 9 62 64 62 80 0 4 -14 22 -31 42 -30 34 -34 35 -98 34 -36 0 -88 -9 -114 -18z m-167 -427 c0 -9 18 -34 40 -56 22 -22 40 -47 40 -54 0 -8 -15 -31 -34 -51 -18 -21 -36 -48 -40 -60 -11 -35 -56 -42 -56 -8 0 8 -18 35 -40 60 -22 25 -40 51 -40 56 0 16 103 129 117 129 7 0 13 -7 13 -16z m-7 -280 c7 -8 -13 -54 -25 -54 -4 0 -8 14 -8 30 0 28 17 40 33 24z m-3 -99 c0 -8 -7 -15 -15 -15 -8 0 -15 7 -15 15 0 8 7 15 15 15 8 0 15 -7 15 -15z m-10 -120 c0 -8 -4 -17 -10 -20 -6 -4 -10 5 -10 20 0 15 4 24 10 20 6 -3 10 -12 10 -20z m10 -66 c0 -5 -7 -9 -15 -9 -9 0 -15 9 -15 21 0 18 2 19 15 9 8 -7 15 -16 15 -21z"/> <path d="M6095 2242 c-32 -4 -80 -48 -95 -87 -24 -64 52 -155 128 -155 70 0 133 99 106 165 -24 59 -70 84 -139 77z"/> <path d="M3767 1825 c-43 -6 -83 -17 -89 -23 -7 -7 -22 -12 -34 -12 -12 0 -27 -7 -34 -15 -7 -8 -17 -15 -22 -15 -20 0 -89 -63 -131 -118 -43 -57 -63 -99 -88 -182 -18 -59 -19 -274 -1 -292 6 -6 12 -20 12 -29 0 -34 66 -146 117 -197 54 -56 112 -91 201 -122 86 -30 256 -28 346 4 72 26 135 61 178 98 37 32 118 147 118 167 0 9 8 28 17 41 15 21 18 49 18 180 l0 155 -39 80 c-28 59 -57 97 -105 145 -87 86 -158 121 -279 139 -82 12 -79 12 -185 -4z m217 -170 c11 -8 27 -15 37 -15 24 0 123 -99 148 -147 42 -83 49 -226 14 -318 -50 -136 -209 -239 -340 -221 -148 20 -240 94 -298 240 -20 50 -20 204 -1 243 8 15 22 45 32 65 29 59 84 113 144 139 14 6 32 15 40 19 27 16 203 11 224 -5z"/> <path d="M6083 1823 c-52 -10 -53 -16 -53 -503 l-1 -452 26 -34 c21 -27 33 -34 61 -34 43 0 70 13 85 41 15 29 14 921 -1 950 -18 32 -59 43 -117 32z"/> <path d="M7185 1823 c-37 -9 -55 -34 -55 -75 0 -36 8 -54 67 -153 7 -11 15 -27 18 -35 4 -8 11 -22 16 -30 5 -8 12 -22 15 -30 9 -24 43 -91 71 -140 14 -25 53 -99 87 -165 34 -66 74 -138 88 -160 14 -22 28 -50 32 -62 4 -11 13 -27 21 -33 23 -19 18 -47 -21 -129 -36 -74 -43 -90 -64 -141 -5 -14 -14 -32 -19 -40 -9 -15 -23 -46 -41 -90 -5 -14 -14 -32 -19 -40 -20 -35 -28 -78 -18 -96 17 -33 51 -54 89 -54 43 0 57 12 82 71 26 60 58 131 95 211 17 37 31 70 31 73 0 3 13 34 29 68 16 34 43 92 60 129 17 37 31 70 31 73 0 4 15 39 34 78 68 144 96 207 96 214 0 7 47 109 91 196 16 31 29 63 29 69 0 16 40 97 51 104 5 3 9 16 9 28 0 13 7 29 15 36 24 20 19 73 -10 100 -36 34 -105 34 -134 0 -11 -14 -20 -30 -21 -37 0 -6 -6 -24 -14 -40 -8 -15 -21 -44 -30 -63 -8 -19 -29 -65 -45 -101 -17 -36 -31 -73 -31 -81 0 -9 -7 -21 -15 -28 -8 -7 -15 -18 -15 -25 0 -8 -7 -26 -15 -42 -27 -53 -64 -139 -70 -166 -4 -15 -11 -30 -16 -32 -4 -3 -11 -26 -15 -51 -6 -43 -8 -45 -38 -42 -25 2 -32 8 -34 28 -2 14 -7 34 -12 45 -12 28 -166 340 -194 395 -13 25 -27 52 -30 60 -3 8 -10 23 -16 33 -5 9 -15 25 -20 35 -6 9 -13 24 -16 32 -37 95 -66 118 -129 103z m555 -747 c0 -14 -4 -27 -9 -31 -5 -3 -13 -20 -16 -38 -4 -17 -14 -40 -23 -50 -8 -9 -20 -27 -26 -39 -20 -39 -33 -30 -61 41 -31 77 -26 101 21 101 13 0 38 9 56 20 43 26 58 25 58 -4z"/> </g> </svg> 